<mxfile host="app.diagrams.net" modified="2024-03-07T02:38:01.034Z" agent="Mozilla/5.0 (Macintosh; Intel Mac OS X 10_15_7) AppleWebKit/537.36 (KHTML, like Gecko) Chrome/121.0.0.0 Safari/537.36" version="24.0.2" etag="eYm73hWNGn2Hpuy5WC3Y" type="github">
  <diagram name="第 1 页" id="W_6ls5I1Hm7gR7lfFtOY">
    <mxGraphModel>
      <root>
        <mxCell id="0" />
        <mxCell id="1" parent="0" />
      </root>
    </mxGraphModel>
  </diagram>
</mxfile>
